# xmcd CD database file
#
# Track frame offsets:
#	180
#	13983
#	30169
#	44865
#	67788
#	80522
#	97977
#	109437
#	125388
#	136091
#
# Disc length: 1997 seconds
#
# Revision: 2
# Processed by: cddbd v1.5.2PL0 Copyright (c) Steve Scherf et al.
# Submitted via: CDex 1.80
#
DISCID=7e07cb0a
DTITLE=Various Artist - Lets Bootscoot 2
DYEAR=1900
DGENRE=Country
TTITLE0=What Cowgirls Do - Vince Gill
TTITLE1=Still Cruisin' - Beach Boys
TTITLE2=Bootscootin' Boogie - Asleep At The Wheel
TTITLE3=Children - The Mavericks
TTITLE4=Honky Tonk Man - Dwight Yoakam
TTITLE5=Some Kind Of Trouble - Tanya Tucker
TTITLE6=Heartbreak Hotel - Scooter Lee
TTITLE7=Honky Tonk Twist - Scooter Lee
TTITLE8=From A Jack To a King - Ricky Van Shelton
TTITLE9=T.R.O.U.B.L.E. - Travis Tritt
EXTD=
EXTT0=
EXTT1=
EXTT2=
EXTT3=
EXTT4=
EXTT5=
EXTT6=
EXTT7=
EXTT8=
EXTT9=
PLAYORDER=
